<svg xmlns="http://www.w3.org/2000/svg" xmlns:xlink="http://www.w3.org/1999/xlink" xml:space="preserve" width="0.72" height="0.166661" version="1.1" style="shape-rendering:geometricPrecision; text-rendering:geometricPrecision; image-rendering:optimizeQuality; fill-rule:evenodd; clip-rule:evenodd" viewBox="0 0 720 167">
 <defs>
  <style type="text/css">
   <![CDATA[
    .fil5 {fill:#373435;fill-rule:nonzero}
    .fil4 {fill:#DBDBDA;fill-rule:nonzero}
    .fil0 {fill:url(#id0)}
    .fil2 {fill:url(#id1)}
    .fil1 {fill:url(#id2)}
    .fil3 {fill:url(#id3)}
    .fil6 {fill:url(#id4);fill-rule:nonzero}
    .fil8 {fill:url(#id5);fill-rule:nonzero}
    .fil10 {fill:url(#id6);fill-rule:nonzero}
    .fil11 {fill:url(#id7);fill-rule:nonzero}
    .fil9 {fill:url(#id8);fill-rule:nonzero}
    .fil7 {fill:url(#id9);fill-rule:nonzero}
   ]]>
  </style>
  <linearGradient id="id0" gradientUnits="userSpaceOnUse" x1="78.4449" y1="40.7638" x2="25.622" y2="49.5748">
   <stop offset="0" style="stop-opacity:1; stop-color:#B00F14"/>
   <stop offset="1" style="stop-opacity:1; stop-color:#F52D2F"/>
  </linearGradient>
  <linearGradient id="id1" gradientUnits="userSpaceOnUse" x1="74.9331" y1="117.055" x2="57.7008" y2="91.7008">
   <stop offset="0" style="stop-opacity:1; stop-color:#970301"/>
   <stop offset="1" style="stop-opacity:1; stop-color:#D62221"/>
  </linearGradient>
  <linearGradient id="id2" gradientUnits="userSpaceOnUse" x1="132.642" y1="40.6457" x2="79.9606" y2="49.4331">
   <stop offset="0" style="stop-opacity:1; stop-color:#F52D2F"/>
   <stop offset="1" style="stop-opacity:1; stop-color:#B11015"/>
  </linearGradient>
  <linearGradient id="id3" gradientUnits="userSpaceOnUse" x1="101.039" y1="117.024" x2="83.8071" y2="91.6693">
   <stop offset="0" style="stop-opacity:1; stop-color:#970301"/>
   <stop offset="0.380392" style="stop-opacity:1; stop-color:#CB1A18"/>
   <stop offset="1" style="stop-opacity:1; stop-color:#FF3230"/>
  </linearGradient>
  <linearGradient id="id4" gradientUnits="userSpaceOnUse" x1="223.512" y1="50.4843" x2="263.827" y2="50.4843">
   <stop offset="0" style="stop-opacity:1; stop-color:#FF3230"/>
   <stop offset="1" style="stop-opacity:1; stop-color:#980402"/>
  </linearGradient>
  <linearGradient id="id5" gradientUnits="userSpaceOnUse" xlink:href="#id4" x1="223.571" y1="107.354" x2="263.886" y2="107.354">
  </linearGradient>
  <linearGradient id="id6" gradientUnits="userSpaceOnUse" x1="647.579" y1="78.0197" x2="687.894" y2="78.0197">
   <stop offset="0" style="stop-opacity:1; stop-color:#F22C2E"/>
   <stop offset="1" style="stop-opacity:1; stop-color:#9B0503"/>
  </linearGradient>
  <linearGradient id="id7" gradientUnits="userSpaceOnUse" xlink:href="#id6" x1="647.571" y1="107.161" x2="687.886" y2="107.161">
  </linearGradient>
  <linearGradient id="id8" gradientUnits="userSpaceOnUse" xlink:href="#id6" x1="647.512" y1="50.2913" x2="687.827" y2="50.2913">
  </linearGradient>
  <linearGradient id="id9" gradientUnits="userSpaceOnUse" xlink:href="#id4" x1="223.579" y1="78.2126" x2="263.894" y2="78.2126">
  </linearGradient>
 </defs>
 <g id="Layer_x0020_1">
  <metadata id="CorelCorpID_0Corel-Layer"/>
  <g id="_2527385750368">
   <g>
    <path class="fil0" d="M79 19l0 0 -51 19c-2,1 -3,3 -3,5l0 25c0,5 2,3 6,2l48 -15 0 -35 0 -1z"/>
    <path class="fil1" d="M79 19l51 19c2,1 3,3 3,5l0 25c0,4 -2,3 -5,2l-49 -15 0 -36 0 0z"/>
   </g>
   <g>
    <path class="fil2" d="M78 67l-22 6c-2,1 -3,2 -3,3l0 53c0,3 0,5 3,6l22 7 1 0 1 -75 -2 0z"/>
    <path class="fil3" d="M80 67l23 6c1,0 2,2 2,3l1 53c0,3 -1,5 -4,6l-21 7 -2 0 0 -75 1 0z"/>
   </g>
  </g>
  <path class="fil4" d="M191 130l0 28 -6 0 0 -28 6 0zm27 0l0 4 -7 0 0 24 -6 0 0 -24 -8 0 0 -4 21 0zm44 20c0,2 0,3 -1,4 0,2 -1,2 -3,3 -1,1 -3,1 -5,1 -2,0 -4,0 -5,-1 -2,0 -3,-1 -4,-3 -1,-1 -2,-2 -2,-4l6 0c0,1 1,2 2,3 0,1 2,1 3,1 1,0 2,0 2,-1 1,-1 1,-1 1,-2 0,-1 0,-2 0,-3 -1,0 -1,-1 -2,-1 -1,0 -2,-1 -3,-1 -2,-1 -4,-1 -5,-2 -1,0 -2,-1 -3,-2 0,-1 -1,-3 -1,-5 0,-2 1,-4 3,-5 2,-2 4,-2 7,-2 3,0 5,0 7,2 2,1 3,3 3,5l-6 0c0,-1 -1,-1 -1,-2 -1,-1 -2,-1 -3,-1 -1,0 -2,0 -3,1 0,0 -1,1 -1,2 0,1 1,2 1,2 1,1 1,1 2,2 1,0 2,0 3,1 2,0 3,1 4,1 1,1 2,2 3,3 1,1 1,3 1,4zm21 -20c3,0 5,0 7,1 2,2 4,3 5,6 2,2 2,4 2,7 0,3 0,5 -2,7 -1,3 -3,4 -5,5 -2,2 -4,2 -7,2 -3,0 -5,0 -7,-2 -2,-1 -4,-2 -5,-5 -1,-2 -2,-4 -2,-7 0,-3 1,-5 2,-7 1,-3 3,-4 5,-6 2,-1 4,-1 7,-1zm0 5c-2,0 -3,0 -4,1 -1,1 -2,2 -3,3 -1,1 -1,3 -1,5 0,2 0,3 1,5 1,1 2,2 3,3 1,1 2,1 4,1 2,0 3,0 4,-1 2,-1 3,-2 3,-3 1,-2 1,-3 1,-5 0,-2 0,-4 -1,-5 0,-1 -1,-2 -3,-3 -1,-1 -2,-1 -4,-1zm27 19l10 0 0 4 -15 0 0 -28 5 0 0 24zm22 -24l0 16c0,3 0,4 1,5 1,1 3,2 5,2 1,0 3,-1 4,-2 1,-1 1,-2 1,-5l0 -16 6 0 0 16c0,3 -1,5 -2,7 -1,2 -2,3 -4,4 -1,1 -3,1 -6,1 -3,0 -6,-1 -8,-3 -2,-2 -3,-5 -3,-9l0 -16 6 0zm44 0l0 4 -8 0 0 24 -5 0 0 -24 -8 0 0 -4 21 0zm12 0l0 28 -5 0 0 -28 5 0zm22 0c2,0 5,0 7,1 2,2 4,3 5,6 1,2 2,4 2,7 0,3 -1,5 -2,7 -1,3 -3,4 -5,5 -2,2 -5,2 -7,2 -3,0 -5,0 -7,-2 -2,-1 -4,-2 -5,-5 -2,-2 -2,-4 -2,-7 0,-3 0,-5 2,-7 1,-3 3,-4 5,-6 2,-1 4,-1 7,-1zm0 5c-2,0 -3,0 -5,1 -1,1 -2,2 -2,3 -1,1 -2,3 -2,5 0,2 1,3 2,5 0,1 1,2 2,3 2,1 3,1 5,1 1,0 3,0 4,-1 1,-1 2,-2 3,-3 1,-2 1,-3 1,-5 0,-2 0,-4 -1,-5 -1,-1 -2,-2 -3,-3 -1,-1 -3,-1 -4,-1zm45 23l-5 0 -13 -19 0 19 -6 0 0 -28 6 0 13 19 0 -19 5 0 0 28zm28 -8c0,2 0,3 -1,4 -1,2 -2,2 -3,3 -2,1 -3,1 -5,1 -2,0 -4,0 -6,-1 -1,0 -3,-1 -4,-3 -1,-1 -1,-2 -1,-4l6 0c0,1 0,2 1,3 1,1 2,1 3,1 1,0 2,0 3,-1 1,-1 1,-1 1,-2 0,-1 0,-2 -1,-3 0,0 -1,-1 -2,-1 -1,0 -2,-1 -3,-1 -2,-1 -3,-1 -4,-2 -1,0 -2,-1 -3,-2 -1,-1 -1,-3 -1,-5 0,-2 1,-4 2,-5 2,-2 4,-2 7,-2 3,0 6,0 7,2 2,1 3,3 3,5l-6 0c0,-1 0,-1 -1,-2 -1,-1 -2,-1 -3,-1 -1,0 -2,0 -2,1 -1,0 -1,1 -1,2 0,1 0,2 0,2 1,1 2,1 2,2 1,0 2,0 3,1 2,0 4,1 5,1 1,1 2,2 3,3 1,1 1,3 1,4zm31 -2l0 10 -5 0 0 -28 10 0c3,0 6,1 7,2 2,2 3,4 3,7 0,3 -1,5 -3,6 -1,2 -4,3 -7,3l-5 0zm4 -5c4,0 5,-1 5,-4 0,-2 0,-3 -1,-3 -1,-1 -2,-1 -4,-1l-4 0 0 8 4 0zm22 -13l7 22 8 -22 6 0 -10 28 -7 0 -10 -28 6 0zm46 0l0 4 -7 0 0 24 -6 0 0 -24 -8 0 0 -4 21 0zm31 24l9 0 0 4 -15 0 0 -28 6 0 0 24zm35 -24l0 4 -8 0 0 24 -5 0 0 -24 -8 0 0 -4 21 0zm31 14c0,3 0,5 -2,7 -1,2 -2,4 -5,5 -2,1 -4,2 -8,2l-10 0 0 -28 10 0c4,0 6,1 8,2 3,1 4,2 5,5 2,2 2,4 2,7zm-15 9c3,0 5,-1 7,-2 2,-2 2,-4 2,-7 0,-3 0,-5 -2,-7 -2,-1 -4,-2 -7,-2l-4 0 0 18 4 0z"/>
  <polygon class="fil5" points="216,45 216,56 197,56 197,113 184,113 184,56 165,56 165,45 "/>
  <path class="fil5" d="M304 44c9,0 16,3 21,7 6,4 10,10 11,18l-14 0c-1,-4 -4,-7 -7,-9 -3,-2 -7,-3 -11,-3 -3,0 -7,1 -10,3 -2,1 -5,4 -6,7 -2,4 -3,7 -3,12 0,4 1,8 3,12 1,3 4,5 6,7 3,2 7,3 10,3 4,0 8,-1 11,-3 3,-2 6,-5 7,-9l14 0c-1,8 -5,13 -11,18 -5,4 -12,6 -21,6 -6,0 -12,-1 -17,-4 -5,-3 -9,-7 -11,-12 -3,-5 -4,-11 -4,-18 0,-7 1,-13 4,-18 2,-5 6,-9 11,-12 5,-3 11,-5 17,-5z"/>
  <polygon class="fil5" points="403,45 403,113 389,113 389,83 360,83 360,113 346,113 346,45 360,45 360,73 389,73 389,45 "/>
  <polygon class="fil5" points="503,45 487,113 470,113 458,64 445,113 428,113 412,45 426,45 437,98 450,45 465,45 478,98 489,45 "/>
  <path class="fil5" d="M554 99l-27 0 -5 14 -14 0 25 -67 15 0 25 67 -14 0 -5 -14zm-4 -10l-10 -29 -10 29 20 0z"/>
  <polygon class="fil5" points="590,45 608,99 626,45 640,45 616,113 599,113 575,45 "/>
  <g id="_2527385779200">
   <polygon class="fil6" points="264,45 264,56 249,56 238,56 224,56 224,45 "/>
   <polygon class="fil7" points="264,73 264,84 249,84 238,84 224,84 224,73 "/>
   <polygon class="fil8" points="264,102 264,113 249,113 238,113 224,113 224,102 "/>
  </g>
  <g id="_2527385778624">
   <polygon class="fil9" points="688,45 688,56 673,56 662,56 648,56 648,45 "/>
   <polygon class="fil10" points="688,73 688,83 673,83 662,83 648,83 648,73 "/>
   <polygon class="fil11" points="688,102 688,113 673,113 662,113 648,113 648,102 "/>
  </g>
 </g>
</svg>